<?xml version="1.0" standalone="no"?>
<!DOCTYPE svg PUBLIC "-//W3C//DTD SVG 1.1//EN" "http://www.w3.org/Graphics/SVG/1.1/DTD/svg11.dtd" >
<svg xmlns="http://www.w3.org/2000/svg">
<metadata></metadata>
<defs>
<font id="nexa_slablight" horiz-adv-x="802" >
<font-face units-per-em="1000" ascent="700" descent="-300" />
<missing-glyph horiz-adv-x="266" />
<glyph horiz-adv-x="0" />
<glyph horiz-adv-x="333" />
<glyph unicode="&#xd;" horiz-adv-x="324" />
<glyph unicode=" "  horiz-adv-x="266" />
<glyph unicode="&#x09;" horiz-adv-x="266" />
<glyph unicode="&#xa0;" horiz-adv-x="266" />
<glyph unicode="!" horiz-adv-x="259" d="M104 700h49v-559h-49v559zM130 -2q-15 0 -26 9.5t-11 27.5q0 17 11.5 26.5t26.5 9.5t26 -9.5t11 -26.5q0 -18 -11 -27.5t-27 -9.5z" />
<glyph unicode="&#x22;" horiz-adv-x="340" d="M218 704h43v-256h-43v256zM79 704h44v-256h-44v256z" />
<glyph unicode="#" horiz-adv-x="627" d="M446 495h-203l-73 -284h204zM249 700h43l-41 -168h205l42 168h43l-42 -168h92v-37h-100l-73 -284h96v-39h-105l-42 -172h-43l42 172h-205l-42 -172h-43l42 172h-81v39h89l73 284h-85v37h94z" />
<glyph unicode="$" horiz-adv-x="652" d="M115 109q89 -73 216 -73q37 0 72.5 6.5t73 21.5t60 46.5t22.5 75.5q0 31 -13 54.5t-34.5 38.5t-52 26t-60 17.5t-63.5 13.5q-8 1 -12 2q-48 9 -77.5 16t-67 21.5t-59 32.5t-36.5 48t-15 68q0 47 20.5 84t55.5 59t78 33t91 12v92h47v-93q134 -10 213 -77q0 -23 -0.5 -66.5 t-0.5 -67.5h-46l-1 111q-73 54 -201 56q-85 1 -145 -35.5t-60 -108.5q0 -27 12 -48.5t29.5 -35t48.5 -24.5t56.5 -17t65.5 -14q44 -8 68.5 -13t62.5 -16t59.5 -24.5t44 -33t32.5 -47.5t10 -64q0 -50 -21.5 -88t-58 -60t-79 -34t-90.5 -14v-91h-47v89q-149 7 -247 96 q0 16 0.5 71t0.5 70h47z" />
<glyph unicode="%" horiz-adv-x="733" d="M189 706q73 0 113.5 -44t40.5 -105q0 -60 -41 -103.5t-113 -43.5t-112 43.5t-40 104.5t40 104.5t112 43.5zM566 702h53l-451 -702h-54zM189 667q-52 0 -81 -32.5t-28 -76.5q1 -45 29.5 -76.5t80.5 -31.5q51 0 80 31.5t29 75.5q1 44 -28.5 77t-81.5 33zM542 291 q73 0 113.5 -44.5t40.5 -105.5q0 -60 -41 -103.5t-113 -43.5t-112 43.5t-40 104.5t40 105t112 44zM542 252q-52 0 -81 -33t-28 -77t29.5 -75.5t80.5 -31.5q51 0 80 31.5t29 75.5q1 44 -28.5 77t-81.5 33z" />
<glyph unicode="&#x26;" horiz-adv-x="686" d="M514 184v153h-193q-97 0 -153 -45.5t-56 -104.5q0 -71 52 -111t156 -40q34 0 65 7t61.5 22.5t49 46t18.5 72.5zM557 336v-153q0 -66 19.5 -105t67.5 -38v-40q-42 -6 -74 18.5t-43 69.5q-35 -57 -87 -77t-119 -20q-125 0 -191.5 51.5t-66.5 142.5q0 62 41.5 107.5 t99.5 64.5q-57 17 -93.5 60.5t-36.5 100.5q0 83 65.5 134.5t183.5 51.5q46 0 83 -7t70.5 -25t52 -53.5t18.5 -87.5l-45 1q0 40 -14.5 66.5t-41.5 39.5t-56 18t-68 5q-97 0 -148 -39.5t-50 -102.5q1 -50 34.5 -83t76 -45t89.5 -12h297v-43h-64z" />
<glyph unicode="'" horiz-adv-x="201" d="M79 704h43v-256h-43v256z" />
<glyph unicode="(" horiz-adv-x="325" d="M271 735l26 -37q-95 -65 -144.5 -168t-51.5 -232q-1 -123 48.5 -231t146.5 -178l-25 -38q-106 68 -163 188.5t-57 255.5t56.5 253t163.5 187z" />
<glyph unicode=")" horiz-adv-x="325" d="M28 699l26 37q106 -69 162.5 -186.5t56.5 -253.5t-56.5 -256t-162.5 -189l-25 38q97 70 146.5 178t47.5 232q-1 128 -51 231t-144 169z" />
<glyph unicode="*" horiz-adv-x="341" d="M252 517l-32 -23l-51 73l-53 -73l-33 23l57 70l-79 23l11 36l78 -26l-1 81h40l-2 -81l85 25l11 -35l-86 -23z" />
<glyph unicode="+" horiz-adv-x="496" d="M50 318v48h175v172h46v-172h175v-48h-175v-177h-46v177h-175z" />
<glyph unicode="," horiz-adv-x="228" d="M113 -83h-39l27 75q-26 7 -26 36q1 14 9 23t19.5 11t22.5 -0.5t19 -12.5t7 -25q-1 -6 -39 -107z" />
<glyph unicode="-" horiz-adv-x="497" d="M74 265v46h349v-46h-349z" />
<glyph unicode="." horiz-adv-x="219" d="M109 -4q-15 0 -25.5 9.5t-10.5 26.5t10.5 26.5t25.5 9.5t25.5 -9.5t10.5 -26.5t-10 -26.5t-26 -9.5z" />
<glyph unicode="/" horiz-adv-x="476" d="M25 -82l373 841h53l-375 -841h-51z" />
<glyph unicode="0" horiz-adv-x="671" d="M68 265v171q0 131 78 202.5t191 71.5q112 0 189 -72t77 -202v-171q0 -130 -77 -202t-190 -73q-114 0 -191 71.5t-77 203.5zM119 436v-171q0 -109 62.5 -167t155.5 -58q92 0 153.5 59t61.5 166v171q0 107 -62 166.5t-153 59.5q-92 0 -155 -59t-63 -167z" />
<glyph unicode="1" horiz-adv-x="396" d="M48 0v45h136v596l-129 -32v46l182 45v-655h137v-45h-326z" />
<glyph unicode="2" horiz-adv-x="666" d="M116 158v-109h435l2 105h46v-154h-535v158q0 55 23.5 95t64.5 60.5t86 29.5t98 9q87 0 148 35.5t61 118.5q0 44 -18.5 76.5t-50.5 49t-66.5 24t-73.5 7.5t-73 -7t-66.5 -22.5t-52 -46.5t-19.5 -74h-51q0 54 22 93.5t60.5 60.5t83 31t96.5 10t96 -10.5t82 -33t60 -63 t22 -95.5t-22.5 -95.5t-61 -63t-82 -33t-93.5 -10.5q-221 0 -221 -146z" />
<glyph unicode="3" horiz-adv-x="647" d="M129 653l-3 -107h-46v154h487v-26l-202 -267q104 -7 166.5 -57t62.5 -150q0 -70 -39 -119t-99 -70.5t-135 -21.5q-53 0 -98.5 10t-84.5 31.5t-61 60t-22 91.5h51q-1 -53 32.5 -87t79.5 -46t103 -12q94 0 158.5 41t64.5 121q0 52 -20 87t-57 51.5t-75 22.5t-88 6l-8 20 q23 32 99.5 134t99.5 133h-366z" />
<glyph unicode="4" horiz-adv-x="644" d="M455 -1v159h-426l-4 44l425 498h58v-493h93v-49h-93v-159h-53zM87 207h368v424z" />
<glyph unicode="5" horiz-adv-x="657" d="M130 428h226q132 0 191.5 -61.5t59.5 -153.5q0 -93 -69.5 -155.5t-202.5 -62.5q-51 0 -96 9.5t-85.5 30.5t-64.5 61.5t-24 96.5h52q0 -44 20 -74.5t54.5 -45t69 -20.5t74.5 -6q109 0 164.5 45.5t55.5 119.5q0 73 -45.5 121t-153.5 48h-275v319h487v-46h-438v-226z" />
<glyph unicode="6" horiz-adv-x="688" d="M135 517v-198q74 104 225 104q52 0 99 -12.5t87 -37t63.5 -67.5t23.5 -99q0 -57 -24 -100t-64 -67.5t-87 -36t-99 -11.5q-71 0 -131 20.5t-102.5 71.5t-42.5 126v306q0 93 78.5 143.5t187.5 50.5q110 0 185 -46t82 -130h-52q-5 62 -65 96t-150 34q-87 0 -150.5 -39 t-63.5 -108zM359 41q56 0 103 13.5t83 52.5t36 100q0 85 -66.5 126.5t-153.5 41.5q-86 0 -155 -43.5t-70 -123.5q0 -45 20 -79t54.5 -52.5t71.5 -27t77 -8.5z" />
<glyph unicode="7" horiz-adv-x="567" d="M87 652l-2 -107h-46v155h513l7 -39l-363 -661h-58l360 652h-411z" />
<glyph unicode="8" horiz-adv-x="701" d="M62 184q0 69 47.5 116.5t113.5 61.5q-149 45 -149 162q0 52 25.5 91t68 59.5t88 30.5t94.5 10t94.5 -9.5t88.5 -30t69 -59.5t26 -92q0 -116 -153 -163q66 -14 114.5 -62.5t49.5 -115.5q0 -55 -26.5 -95t-70.5 -61.5t-92 -31.5t-100 -10t-99.5 10t-91.5 31.5t-70.5 62 t-26.5 95.5zM577 524q0 40 -23 70t-59 46t-72.5 23.5t-72.5 7.5q-49 0 -96.5 -11.5t-88.5 -46.5t-41 -89q0 -50 41 -83t89 -44t96 -11q35 0 71.5 7t73 21.5t59.5 43t23 66.5zM350 341q-34 0 -72.5 -7.5t-76.5 -24.5t-63 -49.5t-25 -74.5t24.5 -73.5t63.5 -47.5t76.5 -23 t72.5 -7t72.5 7t76.5 23t64 47.5t25 73.5q0 41 -25 73t-63.5 49t-77 25.5t-72.5 8.5z" />
<glyph unicode="9" horiz-adv-x="688" d="M329 661q-41 0 -77.5 -8t-70.5 -26t-54.5 -52t-20.5 -80q0 -59 36 -98.5t83.5 -54.5t102.5 -15q85 0 154 43.5t70 123.5q0 45 -20 79t-54 52.5t-71.5 27t-77.5 8.5zM554 185v199q-37 -53 -98 -79t-128 -26q-52 0 -99 12.5t-87 37t-63.5 67.5t-23.5 99q0 57 24 100 t64 67.5t87 36t99 11.5q71 0 131 -20.5t102.5 -71.5t42.5 -126v-306q0 -93 -78.5 -143.5t-187.5 -50.5q-110 0 -185.5 46t-81.5 130h53q4 -61 64 -95t150 -34q86 0 150.5 38.5t64.5 107.5z" />
<glyph unicode=":" horiz-adv-x="225" d="M112 291q-15 0 -26.5 10.5t-11.5 28.5t11.5 28t26.5 10q16 0 27.5 -10t11.5 -28t-11.5 -28.5t-27.5 -10.5zM112 -7q-16 0 -27 10t-11 28t11.5 28.5t26.5 10.5q16 0 27.5 -10.5t11.5 -28.5t-11.5 -28t-27.5 -10z" />
<glyph unicode=";" horiz-adv-x="225" d="M112 291q-15 0 -26.5 10t-11.5 28t11.5 28.5t26.5 10.5q16 0 27.5 -10t11.5 -28t-11.5 -28.5t-27.5 -10.5zM111 -83h-38l27 75q-28 8 -26 36q1 23 20.5 32t38 -1.5t17.5 -34.5q0 -5 -39 -107z" />
<glyph unicode="&#x3c;" horiz-adv-x="361" d="M57 337l211 185l29 -32l-193 -172l197 -172l-33 -34l-211 186v39z" />
<glyph unicode="=" horiz-adv-x="554" d="M78 390v49h398v-49h-398zM78 193v49h398v-49h-398z" />
<glyph unicode="&#x3e;" horiz-adv-x="362" d="M94 522l211 -185v-39l-211 -186l-33 34l197 172l-193 171z" />
<glyph unicode="?" horiz-adv-x="591" d="M85 508h-49q0 55 21 96t58 63.5t80.5 33.5t92.5 11q110 0 187 -50t78 -155q0 -46 -13 -80t-37 -54.5t-46.5 -31.5t-53.5 -20q-75 -24 -96.5 -57.5t-20.5 -123.5h-49q-3 104 28.5 150t120.5 73q60 16 88.5 47.5t28.5 97.5q0 44 -19.5 76.5t-52.5 49.5t-68.5 24.5 t-75.5 7.5q-38 0 -71 -7.5t-63.5 -24t-49 -49t-18.5 -77.5zM264 -2q-15 0 -26.5 9.5t-11.5 27.5t11.5 28t27.5 10t27 -10t11 -28t-11.5 -27.5t-27.5 -9.5z" />
<glyph unicode="@" horiz-adv-x="909" d="M447 653q-155 0 -250 -97t-95 -248q0 -152 94 -244t250 -92q93 0 157 42l22 -37q-79 -49 -178 -49q-179 0 -285 107t-106 273q0 165 106.5 276.5t284.5 111.5q84 0 154.5 -24t125 -71t85.5 -123.5t31 -174.5q0 -36 -4 -69t-14.5 -67t-31 -57t-49.5 -28q-38 -14 -69 6.5 t-32 73.5q-28 -50 -84.5 -81t-117.5 -31q-108 0 -179.5 73t-71.5 178q0 114 71.5 182.5t178.5 68.5q63 0 118 -30t84 -86l1 93l42 -2v-360q-1 -30 14.5 -42.5t32.5 -6.5q67 13 67 185q0 174 -95 262t-257 88zM440 506q-88 0 -145.5 -55t-57.5 -150q0 -89 57.5 -147 t146.5 -58q96 0 149.5 60.5t53.5 144.5t-53.5 144.5t-150.5 60.5z" />
<glyph unicode="A" d="M230 259h344q-28 64 -84 194t-86 199q-28 -63 -86 -194t-88 -199zM80 47l274 607h-95v46h174l291 -653h74v-47h-223v47h93q-13 30 -37.5 85.5t-35.5 80.5h-385q-23 -54 -73 -166h92v-47h-223v47h74z" />
<glyph unicode="B" horiz-adv-x="733" d="M421 0h-371v47h94v607h-92v46h369q100 0 165 -47t65 -144q0 -54 -31.5 -94.5t-86.5 -56.5q69 -18 105.5 -65.5t36.5 -110.5q0 -182 -254 -182zM195 653v-272h234q72 0 122.5 30.5t50.5 98.5q0 143 -181 143h-226zM195 334v-287h226q204 0 204 137q-1 76 -58.5 113 t-137.5 37h-234z" />
<glyph unicode="C" horiz-adv-x="709" d="M416 709q133 0 230 -84q0 -46 -2 -142h-45l-1 120q-78 58 -182 58q-147 0 -228 -90.5t-80 -223.5q0 -133 83.5 -219t224.5 -86q128 0 218 88l36 -33q-103 -104 -254 -104q-169 0 -264 102t-95 252q0 71 22.5 135t66 115.5t113.5 81.5t157 30z" />
<glyph unicode="D" horiz-adv-x="788" d="M375 0h-326v47h95v607h-92v46h323q169 0 261 -98t95 -244q1 -71 -20.5 -134.5t-64 -114t-112.5 -80t-159 -29.5zM194 47h181q147 0 227 91.5t78 219.5q-2 123 -81.5 209t-223.5 86h-181v-606z" />
<glyph unicode="E" horiz-adv-x="683" d="M195 48h387l1 109h47v-157h-580v47h95v607h-93v46h563v-156h-47l-1 109h-372v-275h365v-47h-365v-283z" />
<glyph unicode="F" horiz-adv-x="640" d="M290 0h-240v47h94v607h-92v46h546v-156h-47l-1 109h-356v-285h343v-47h-343v-274h96v-47z" />
<glyph unicode="G" horiz-adv-x="743" d="M417 709q145 0 244 -86q0 -23 -0.5 -69t-0.5 -71h-46v118q-82 60 -197 60q-148 0 -229.5 -90.5t-80.5 -221.5q0 -131 82 -220.5t229 -89.5q58 0 115 23t98 64v179h-238v46h283v-247q-102 -113 -259 -113q-170 0 -265 103t-95 254q-1 163 99.5 262t260.5 99z" />
<glyph unicode="H" horiz-adv-x="824" d="M680 47h94v-47h-236v47h91v283h-435v-283h92v-47h-236v47h94v606h-93v47h233v-47h-90v-277h435v277h-90v47h233v-47h-92v-606z" />
<glyph unicode="I" horiz-adv-x="340" d="M195 47h96v-47h-241v47h94v606h-93v47h237v-47h-93v-606z" />
<glyph unicode="J" horiz-adv-x="677" d="M257 653v47h317v-437q1 -126 -76 -200t-199 -74q-119 0 -194.5 76.5t-75.5 197.5h48q0 -99 63 -162.5t159 -63.5q100 0 162.5 60t62.5 166v390h-267z" />
<glyph unicode="K" horiz-adv-x="717" d="M194 45h101v-45h-245v45h94v608h-93v47h231v-47h-88v-328l350 328h-94v47h239v-47h-77l-278 -262l260 -345h111v-46h-167v41l-239 318l-105 -97v-217z" />
<glyph unicode="L" horiz-adv-x="620" d="M144 653h-93v47h233v-47h-90v-606h349l1 112h46v-159h-539v46h93v607z" />
<glyph unicode="M" horiz-adv-x="950" d="M900 0h-236v46h91v585l-272 -413h-13l-275 412v-584h92v-46h-237v46h94v607h-92v47h155l269 -409l265 409h158v-47h-94v-607h95v-46z" />
<glyph unicode="N" horiz-adv-x="826" d="M287 0h-236v46h93v607h-92v47h125l463 -605v558h-91v47h233v-47h-92v-653h-37l-458 596v-550h92v-46z" />
<glyph unicode="O" horiz-adv-x="816" d="M408 710q86 0 154.5 -30t111 -81t65 -115t22.5 -135q-1 -95 -39 -175t-119.5 -132.5t-194.5 -52.5q-85 0 -153.5 30.5t-111.5 81.5t-65.5 115t-22.5 135q0 69 22.5 132.5t65 114.5t111 81.5t154.5 30.5zM711 349q0 131 -79.5 222t-223.5 92q-73 0 -132 -26t-95.5 -70.5 t-55.5 -100t-19 -116.5q0 -127 80 -220t222 -93q96 0 166.5 45.5t103.5 115t33 151.5z" />
<glyph unicode="P" horiz-adv-x="710" d="M143 47v606h-92v47h395q55 0 99.5 -19t72 -51t42 -72t14.5 -82t-14.5 -82t-42 -72t-72 -51t-99.5 -19h-253v-205h94v-47h-236v47h92zM193 297h253q49 0 87 19.5t57.5 51t29 69.5t0 76t-29 69.5t-57.5 51t-87 19.5h-253v-356z" />
<glyph unicode="Q" horiz-adv-x="818" d="M739 -12l-93 87q-92 -82 -235 -82q-115 0 -197.5 51.5t-120.5 132t-37 179.5q2 96 41.5 174.5t121 128.5t192.5 50q84 0 152 -29.5t111.5 -79.5t66 -114t22.5 -136q0 -139 -83 -240l93 -87zM411 661q-133 0 -219 -87.5t-85 -218.5q0 -134 78.5 -224t224.5 -90 q97 0 167 44t102.5 113t32.5 152q1 132 -78.5 221.5t-222.5 89.5z" />
<glyph unicode="R" horiz-adv-x="738" d="M194 318h246q86 0 134 44t48 124q0 70 -47 118t-128 48h-253v-334zM532 43l-160 230h-178v-225h106v-48h-249v48h94v605h-93v47h395q105 0 164.5 -60.5t60.5 -152.5q1 -102 -60 -156.5t-165 -57.5h-18l161 -225h109v-48h-167v43z" />
<glyph unicode="S" horiz-adv-x="658" d="M323 713q160 -3 249 -79q0 -23 -0.5 -66.5t-0.5 -67.5h-46l-1 111q-75 54 -202 56q-85 1 -145 -35.5t-60 -108.5q0 -27 12 -48.5t29.5 -35t48.5 -24.5t56.5 -17t65.5 -14q43 -8 68.5 -13.5t63 -16t59.5 -24t44.5 -33.5t32.5 -48t10 -63q0 -54 -25 -94.5t-67 -62 t-88.5 -31.5t-98.5 -10q-159 0 -264 96q0 16 0.5 71t0.5 70h47v-116q91 -73 216 -73q37 0 72.5 6.5t73 21.5t60 46.5t22.5 75.5q0 31 -13 54.5t-34.5 38.5t-52 26t-60 17.5t-63.5 13.5q-8 1 -12 2q-47 9 -76.5 16t-67 21.5t-59 32.5t-36.5 48t-15 68q0 65 38.5 109t94.5 62 t123 18z" />
<glyph unicode="T" horiz-adv-x="621" d="M432 0h-243v47h96v606h-205l-1 -112h-45v159h553v-159h-46l-1 112h-204v-606h96v-47z" />
<glyph unicode="U" horiz-adv-x="785" d="M393 38q92 0 154.5 59.5t62.5 167.5v388h-93v47h233v-47h-91v-389q0 -124 -74.5 -198.5t-191.5 -74.5q-116 0 -191.5 74.5t-75.5 198.5v389h-91v47h233v-47h-93v-389q0 -107 63 -166.5t155 -59.5z" />
<glyph unicode="V" horiz-adv-x="770" d="M357 -2l-269 655h-78v47h224v-47h-90l241 -595l242 595h-92v47h224v-47h-78l-267 -655h-57z" />
<glyph unicode="W" horiz-adv-x="1156" d="M1065 653l-231 -655h-53l-203 592l-202 -592h-53l-232 655h-80v47h227v-47h-90l202 -589l213 631h30l214 -631l201 589h-92v47h227v-47h-78z" />
<glyph unicode="X" horiz-adv-x="692" d="M349 403l180 250h-103v47h235v-47h-79l-206 -288l196 -318h112v-47h-165v44l-175 287l-198 -284h109v-47h-246v47h82l225 322l-178 284h-109v47h162v-44z" />
<glyph unicode="Y" horiz-adv-x="720" d="M385 47h96v-47h-242v47h96v233l-243 373h-77v47h225v-47h-88l96 -149l112 -176l115 178l95 147h-89v47h224v-47h-76l-244 -373v-233z" />
<glyph unicode="Z" horiz-adv-x="607" d="M115 652l-2 -106h-47v154h480v-23l-437 -628h401l3 113h45v-162h-522v25l435 627h-356z" />
<glyph unicode="[" horiz-adv-x="318" d="M100 -167v882h180v-47h-129v-787h129v-48h-180z" />
<glyph unicode="\" horiz-adv-x="476" d="M450 -82h-51l-374 841h52z" />
<glyph unicode="]" horiz-adv-x="318" d="M218 716v-882h-180v48h130v787h-130v47h180z" />
<glyph unicode="^" horiz-adv-x="575" d="M106 382h-51l-2 3l210 315h49l209 -315l-1 -3h-51l-182 278z" />
<glyph unicode="_" horiz-adv-x="614" d="M73 -72v45h468v-45h-468z" />
<glyph unicode="`" horiz-adv-x="234" d="M166 577h-45l-90 124h59l76 -120v-4z" />
<glyph unicode="a" horiz-adv-x="674" d="M300 455q-87 0 -145.5 -57t-58.5 -152q0 -96 59 -153t147 -57q95 0 149 61.5t55 146.5q1 87 -53.5 149t-152.5 62zM551 44h91v-44h-135q0 13 -1.5 52.5t-1.5 53.5q-28 -57 -84.5 -86t-119.5 -29q-107 0 -179 70t-72 186q0 115 72 184.5t179 69.5q65 0 122.5 -30.5 t82.5 -86.5v110h136v-45h-90v-405z" />
<glyph unicode="b" horiz-adv-x="663" d="M157 0h-138v44h92v614h-91v43h138v-318q62 118 206 118q106 0 177.5 -69.5t71.5 -184.5t-72.5 -184t-178.5 -70q-66 0 -120 29.5t-84 85.5zM363 456q-94 0 -149.5 -61.5t-54.5 -148.5q0 -87 54.5 -147.5t146.5 -60.5q88 0 146.5 56t58.5 153q0 96 -58 152.5t-144 56.5z " />
<glyph unicode="c" horiz-adv-x="528" d="M459 100l31 -32q-73 -74 -181 -74q-114 0 -186.5 67.5t-72.5 184.5q0 118 72.5 186t185.5 68q91 0 164 -52l-2 -110h-43v87q-49 31 -119 31q-90 -1 -150.5 -56t-60.5 -154q0 -96 59 -151.5t154 -55.5q91 0 149 61z" />
<glyph unicode="d" horiz-adv-x="660" d="M300 457q-87 0 -145 -56.5t-58 -153.5q0 -95 59 -151.5t147 -56.5q95 0 147.5 60.5t52.5 151.5q0 88 -54.5 147t-148.5 59zM550 44h91v-44h-134q0 13 -2 54.5t-2 55.5q-28 -57 -84.5 -87.5t-118.5 -29.5q-107 0 -178.5 69.5t-71.5 184.5q0 116 71 185t177 69 q65 0 123 -30.5t82 -87.5v274h-90v44h137v-657z" />
<glyph unicode="e" horiz-adv-x="588" d="M480 116l34 -28q-35 -45 -93.5 -69.5t-120.5 -24.5q-107 0 -179 69t-72 184q0 112 71 183.5t178 71.5q114 0 186.5 -70t59.5 -206h-447q7 -89 65 -138t139 -49q51 0 101.5 21t77.5 56zM97 268h403q1 91 -53 140.5t-148 49.5q-82 0 -138 -50.5t-64 -139.5z" />
<glyph unicode="f" horiz-adv-x="354" d="M174 44h118v-44h-253v44h88v405h-100v43h100v48q0 163 145 163q53 0 95 -29l-21 -36q-34 24 -73 24q-49 0 -74 -28t-25 -94v-48h157v-43h-157v-405z" />
<glyph unicode="g" horiz-adv-x="610" d="M98 264q1 -97 59 -147.5t150 -50.5q91 0 148.5 58t57.5 139q0 97 -61 147t-146 50q-83 0 -145.5 -51t-62.5 -145zM63 -97h45q-1 -73 57.5 -112t141.5 -40q82 -1 141 34t59 102q0 72 -59.5 104t-141.5 32q-114 0 -184.5 64t-70.5 177t77 177t178 64q91 0 152 -43l51 60 l34 -26l-52 -62q33 -36 50.5 -72.5t17.5 -97.5q0 -68 -41 -132t-116 -82q70 -15 111.5 -56t41.5 -106q0 -86 -74 -134.5t-175 -47.5q-105 1 -175.5 53t-67.5 144z" />
<glyph unicode="h" horiz-adv-x="645" d="M111 44v613h-92v43h138v-309q56 109 186 109q101 0 151 -56t50 -159v-241h90v-44h-218v44h81v240q0 169 -158 172q-75 2 -128.5 -51t-53.5 -130v-231h85v-44h-224v44h93z" />
<glyph unicode="i" horiz-adv-x="285" d="M148 619q-15 0 -26 9t-11 28q0 18 11.5 27t27.5 9q15 0 26 -9t11 -28q0 -36 -39 -36zM35 495h137v-450h94v-45h-234v45h94v406h-91v44z" />
<glyph unicode="j" horiz-adv-x="247" d="M138 620q-15 0 -26 9t-11 28q0 18 11.5 27t26.5 9t26.5 -9t11.5 -28t-11.5 -27.5t-27.5 -8.5zM20 495h142v-571q0 -38 -5.5 -66t-19 -52t-40.5 -36.5t-66 -12.5q-45 0 -88 25l15 39q34 -19 73 -19q52 1 67.5 31.5t15.5 90.5v526h-94v45z" />
<glyph unicode="k" horiz-adv-x="548" d="M111 656h-90v44h137v-446l138 122l90 76l-74 1v42h200v-43h-63l-189 -165l178 -242h89v-45h-141v36l-161 221l-67 -55v-157h83v-45h-221v45h91v611z" />
<glyph unicode="l" horiz-adv-x="272" d="M22 656v44h137v-655h93v-45h-232v45h93v611h-91z" />
<glyph unicode="m" horiz-adv-x="1005" d="M257 0h-224v44h91v406h-90v43h136l1 -87q21 49 65 72.5t96 23.5q65 0 115 -30t68 -93q23 62 72.5 93t110.5 31q93 0 149.5 -57t56.5 -150v-252h90v-44h-221v44h84v252q0 73 -43.5 117.5t-115.5 44.5q-71 0 -116 -47t-45 -119v-248h84v-44h-216v44h86v248q0 73 -44.5 119 t-118.5 46q-70 -2 -113 -48t-43 -117v-248h85v-44z" />
<glyph unicode="n" horiz-adv-x="671" d="M170 275v-231h86v-44h-223v44h90v406h-90v44h135l2 -102q30 56 79 83t106 28q103 0 158.5 -57.5t55.5 -161.5v-240h91v-44h-221v44h82v239q0 86 -43 130.5t-125 44.5q-78 -1 -130.5 -53t-52.5 -130z" />
<glyph unicode="o" horiz-adv-x="605" d="M50 246q0 116 73 186.5t180 70.5t179.5 -71t72.5 -186t-72.5 -184t-180.5 -69q-107 0 -179.5 69t-72.5 184zM508 246q0 96 -59.5 154.5t-146.5 58.5q-86 0 -145.5 -58.5t-59.5 -154.5q0 -94 59 -151t146 -57t146.5 57t59.5 151z" />
<glyph unicode="p" horiz-adv-x="662" d="M363 36q87 0 145 57t58 152q0 98 -58.5 153t-148.5 55q-96 0 -147.5 -60.5t-51.5 -150.5q0 -87 54.5 -146t148.5 -60zM110 450h-89v44h136q0 -13 0.5 -56t0.5 -57q29 57 85.5 88t120.5 31q107 -1 178 -70.5t71 -184.5q0 -113 -71 -183.5t-179 -70.5q-64 0 -122 31t-83 87 v-307h91v-43h-220v43h81v648z" />
<glyph unicode="q" horiz-adv-x="637" d="M507 494h45v-690h83v-44h-220v44h91v306q-25 -57 -83 -87.5t-124 -30.5q-107 0 -178 69.5t-71 185.5t71 185t178 69q64 1 122 -30t85 -87zM301 37q94 0 149 59.5t55 146.5q0 91 -52 151.5t-149 60.5q-89 0 -147.5 -55t-58.5 -153q0 -95 57.5 -152.5t145.5 -57.5z" />
<glyph unicode="r" horiz-adv-x="449" d="M122 43v407h-91v44h133l3 -97q21 47 66.5 74.5t101.5 27.5t103 -28l-20 -40q-42 24 -85 24q-72 -1 -117.5 -49t-45.5 -118v-245h89v-43h-224v43h87z" />
<glyph unicode="s" horiz-adv-x="505" d="M433 460l-2 -107h-42l-2 80q-56 29 -133 29q-67 1 -107.5 -22t-40.5 -72q0 -23 11.5 -39.5t36 -26.5t46 -14.5t57.5 -10.5q100 -16 136 -34q69 -35 68 -110q-1 -50 -33.5 -83.5t-76.5 -46t-96 -12.5q-57 0 -101 13.5t-98 43.5v110h44l1 -81q74 -41 156 -41q37 0 69.5 7.5 t60 31t27.5 60.5q0 21 -9.5 37t-22.5 25.5t-36.5 17t-43 11.5t-50.5 8q-32 5 -53 9t-50.5 14t-47 23t-30.5 36t-13 52q0 69 56 103t139 34q95 2 180 -45z" />
<glyph unicode="t" horiz-adv-x="363" d="M113 638l47 5v-149h168v-41h-168v-301q0 -57 18.5 -86.5t72.5 -29.5q36 0 82 23l17 -39q-52 -27 -99 -27q-75 0 -106.5 39.5t-31.5 119.5v301h-105v41h105v144z" />
<glyph unicode="u" horiz-adv-x="648" d="M538 494v-451h91v-43h-132l-4 100q-59 -106 -187 -108q-102 0 -156.5 56.5t-54.5 160.5v241h-87v44h135v-283q0 -174 168 -174q79 0 129 52t50 130v231h-88v44h136z" />
<glyph unicode="v" horiz-adv-x="608" d="M277 -1l-190 452h-71v43h202v-43h-80l98 -233l67 -167l68 170l99 230h-80v43h200v-43h-69l-191 -452h-53z" />
<glyph unicode="w" horiz-adv-x="887" d="M250 -1l-161 452h-71v43h203v-43h-80l135 -395l152 438h33l151 -438l134 395h-82v43h205v-43h-72l-159 -452h-52l-70 197l-72 218l-72 -217l-71 -198h-51z" />
<glyph unicode="x" horiz-adv-x="555" d="M222 0h-203v43h69l161 214l-143 193h-68v44h122v-41l119 -162l79 103l44 57h-79v43h196v-43h-64l-148 -196l159 -212h70v-43h-124v40l-135 182l-77 -102l-58 -77h80v-43z" />
<glyph unicode="y" horiz-adv-x="607" d="M464 450h-83v44h207v-44h-71l-251 -604q-28 -69 -85 -85t-125 29l22 40q40 -32 80 -26t62 55l62 146l-191 445h-76v44h207v-44h-79l108 -250l57 -146l55 147z" />
<glyph unicode="z" horiz-adv-x="480" d="M101 450l-2 -89h-42v133h368v-21l-312 -429h274l2 96h42v-140h-393v16l317 434h-254z" />
<glyph unicode="{" horiz-adv-x="310" d="M39 315q79 0 79 118v153q0 163 153 129v-38q-54 12 -80 -7t-26 -85v-152q0 -28 -1.5 -43t-7 -37.5t-20.5 -36.5t-39 -20q24 -6 39 -20t21 -36t7.5 -37.5t1.5 -42.5v-149q0 -65 25 -83t80 -7v-40q-77 -16 -115 14.5t-38 114.5v149q0 118 -79 118v38z" />
<glyph unicode="|" horiz-adv-x="249" d="M101 710h47v-828h-47v828z" />
<glyph unicode="}" horiz-adv-x="311" d="M272 313v-38q-79 0 -79 -117v-149q0 -85 -38 -114.5t-115 -12.5v37q56 -11 81 7t25 83v148q0 27 1.5 43t7.5 38t21 36t39 20q-20 5 -33.5 17t-20.5 23.5t-10.5 31t-4 31.5t-0.5 34v152q0 66 -26 85.5t-80 7.5v37q153 34 153 -129v-153q0 -118 79 -118z" />
<glyph unicode="~" horiz-adv-x="635" d="M519 348l39 -17q-53 -129 -192 -65l-100 52q-47 25 -89 10.5t-63 -65.5l-35 16q21 63 78 87t128 -10l97 -51q43 -24 79 -15t58 58z" />
<glyph unicode="&#xa1;" horiz-adv-x="237" d="M155 459q0 -17 -11.5 -26.5t-26.5 -9.5t-26.5 10t-11.5 27t11.5 27t26.5 10t26.5 -10t11.5 -28zM144 -206h-50v559h50v-559z" />
<glyph unicode="&#xa2;" horiz-adv-x="537" d="M281 -85l-1 71q-100 9 -165.5 75t-65.5 176q0 106 65 174t167 77v60h45v-60q96 -10 156 -70l-32 -30q-58 57 -146 57q-90 0 -149 -54.5t-59 -153.5q0 -101 59 -154.5t149 -53.5q81 0 147 63l33 -34q-67 -64 -158 -72v-71h-45z" />
<glyph unicode="&#xa3;" horiz-adv-x="648" d="M59 0v43q50 52 74 102t24 89.5t-7 81.5h-91v42h80q-2 8 -7.5 26t-8 29t-6 27.5t-5 33t-1.5 33.5q0 98 68 148.5t172 50.5q98 0 160.5 -42t63.5 -139h-45q-1 76 -52.5 106.5t-126.5 30.5q-86 0 -139.5 -40t-53.5 -114q0 -19 3 -40.5t6 -35t8.5 -37.5t8.5 -36h262v-43h-252 q37 -153 -78 -270h420l2 111h46v-157h-525z" />
<glyph unicode="&#xa4;" horiz-adv-x="571" d="M162 161l-61 -59l-34 34l61 60q-44 54 -44.5 129t43.5 130l-60 59l34 35l59 -60q54 39 126 39q74 0 124 -39l60 60l34 -35l-58 -58q43 -56 42.5 -130.5t-44.5 -129.5l60 -60l-34 -34l-61 59q-48 -37 -123 -37q-74 0 -124 37zM286 166q74 0 115.5 47.5t41.5 112.5 q0 66 -41.5 113t-115.5 47q-75 0 -116.5 -47t-41.5 -113q0 -65 41.5 -112.5t116.5 -47.5z" />
<glyph unicode="&#xa5;" horiz-adv-x="752" d="M201 284v40h121l-215 329h-76v47h224v-47h-89l209 -327l211 327h-90v47h225v-47h-77l-215 -329h121v-40h-147l-2 -12v-52h150v-40h-150v-133h96v-47h-243v47h97v133h-149v40h149v52l-3 12h-147z" />
<glyph unicode="&#xa6;" horiz-adv-x="256" d="M154 342h-52v364h52v-364zM102 275h52v-363h-52v363z" />
<glyph unicode="&#xa7;" horiz-adv-x="540" d="M273 260q65 0 110.5 22t45.5 66q1 49 -46 73t-107 24q-71 1 -114 -22.5t-41 -73.5q1 -40 46 -64.5t106 -24.5zM273 716q114 0 181 -66l-30 -29q-58 53 -152 53q-62 1 -106 -23.5t-42 -68.5q2 -79 147 -93q33 -3 57.5 -7t54.5 -14t49 -24.5t32 -39t12 -56.5 q-1 -45 -34 -74t-83 -38q120 -34 119 -120q-1 -38 -20 -66t-50.5 -41.5t-64.5 -19.5t-69 -6q-69 0 -127 25t-89 72l34 30q31 -42 80 -63t102 -20q37 0 68 5.5t59.5 27t28.5 57.5q0 77 -163 98q-189 22 -192 134q-1 40 28.5 75.5t85.5 43.5q-51 10 -81.5 38.5t-31.5 74.5 q-1 64 57 99.5t140 35.5z" />
<glyph unicode="&#xa8;" horiz-adv-x="454" d="M103 641q-15 0 -26 10t-11 27q0 18 11 28t26 10q16 0 27 -9.5t11 -27.5t-11.5 -28t-26.5 -10zM317 641q-15 0 -26 9.5t-11 27.5t11 28t26 10q16 0 27 -10t11 -28t-11 -27.5t-27 -9.5z" />
<glyph unicode="&#xa9;" horiz-adv-x="836" d="M418 713q165 0 263 -106t98 -259q0 -99 -41 -180.5t-124.5 -133t-195.5 -51.5q-167 0 -264 105.5t-97 259.5t97 259.5t264 105.5zM103 348q0 -139 85 -230t230 -91q144 0 228.5 91t84.5 230t-84.5 230t-228.5 91q-145 0 -230 -91t-85 -230zM566 490l-29 -33 q-42 44 -107 44q-64 0 -108 -40.5t-44 -109.5q0 -66 44 -108.5t107 -42.5q62 0 106 44l31 -32q-53 -56 -137 -56t-140.5 54.5t-56.5 141.5q0 85 56.5 140t140.5 55q82 0 137 -57z" />
<glyph unicode="&#xaa;" horiz-adv-x="502" d="M242 664q-52 0 -87 -34t-35 -91t35 -90.5t87 -33.5q58 0 91 39t33 85.5t-33 85.5t-91 39zM409 377h-41l-1 63q-43 -66 -127 -68q-70 0 -117.5 45t-47.5 123q0 77 47.5 121.5t117.5 44.5q38 0 73 -17.5t55 -49.5v62h41v-324zM88 267v43h333v-43h-333z" />
<glyph unicode="&#xab;" horiz-adv-x="393" d="M290 77l-138 220l138 219h50l-135 -219l135 -220h-50zM51 297l138 219h51l-135 -219l135 -220h-51z" />
<glyph unicode="&#xac;" horiz-adv-x="502" d="M424 362v-187h-45v142h-301v45h346z" />
<glyph unicode="&#xad;" horiz-adv-x="497" d="M74 265v46h349v-46h-349z" />
<glyph unicode="&#xae;" horiz-adv-x="834" d="M416 713q167 0 264 -105.5t97 -259.5q0 -153 -97 -259t-264 -106t-263 105.5t-96 259.5q0 99 40.5 181t123.5 133t195 51zM103 348q0 -140 84 -230.5t229 -90.5t229.5 91.5t84.5 229.5q0 139 -84.5 230t-229.5 91q-144 0 -228.5 -91t-84.5 -230zM323 343h123 q52 0 73.5 39.5t1 79.5t-71.5 40h-126v-159zM279 160v383h170q58 0 91.5 -35.5t35 -78.5t-29 -80.5t-86.5 -40.5l126 -140v-8h-52l-122 144h-89v-144h-44z" />
<glyph unicode="&#xaf;" horiz-adv-x="547" d="M121 659v43h305v-43h-305z" />
<glyph unicode="&#xb0;" horiz-adv-x="317" d="M162 530q-40 0 -67 20t-32.5 49t1 58t33 49t63.5 20q38 0 63.5 -20t32 -49t0.5 -58t-31.5 -49t-62.5 -20zM160 692q-30 0 -47.5 -20t-18.5 -44.5t16.5 -44.5t49.5 -20q40 0 56 32.5t0 64.5t-56 32z" />
<glyph unicode="&#xb1;" horiz-adv-x="523" d="M76 347v42h163v165h44v-165h163v-42h-163v-168h-44v168h-163zM84 48v43h356v-43h-356z" />
<glyph unicode="&#xb2;" horiz-adv-x="354" d="M85 687h-40q0 56 37.5 81t94.5 25q54 0 93 -25t39 -80q0 -54 -36 -75.5t-94 -27.5q-22 -2 -35.5 -5t-29 -10.5t-23.5 -22t-8 -36.5v-37h186l1 53h40v-93h-269v78q0 57 36.5 79.5t93.5 28.5q31 4 49 9t33 20t15 40q0 66 -91 66t-92 -68z" />
<glyph unicode="&#xb3;" horiz-adv-x="353" d="M86 742l-2 -51h-36v88h255v-20l-95 -128q49 -3 78.5 -29.5t29.5 -76.5q0 -59 -41 -86.5t-101 -27.5q-59 0 -98 27t-39 83h41q0 -36 28.5 -53t67.5 -17q100 0 100 74q0 69 -98 74h-20l-3 16l94 127h-161z" />
<glyph unicode="&#xb4;" horiz-adv-x="224" d="M75 577h-45v4l75 120h60z" />
<glyph unicode="&#xb5;" horiz-adv-x="614" d="M516 0h-42l-3 92q-21 -52 -71.5 -78.5t-108.5 -25.5q-55 0 -104.5 25t-69.5 72v-312h-45v722h46v-292q0 -79 52 -124.5t123 -46.5q73 -1 124.5 46.5t51.5 139.5v277h47v-495z" />
<glyph unicode="&#xb6;" horiz-adv-x="778" d="M594 657h-273v-874h-46v412q-117 0 -181.5 74.5t-62.5 177.5q2 102 67 177t180 75h466v-42h-106v-873h-44v873z" />
<glyph unicode="&#xb7;" horiz-adv-x="223" d="M149 290q0 -23 -18.5 -32.5t-37.5 0t-19 32.5q0 24 19 33.5t37.5 0t18.5 -33.5z" />
<glyph unicode="&#xb8;" horiz-adv-x="295" d="M94 -71l-7 5l20 88h38l-13 -59q57 3 82 -28.5t13 -72.5q-18 -70 -103 -70q-73 0 -103 54l27 23q29 -39 76 -39q51 0 64 41q9 30 -16.5 49.5t-77.5 8.5z" />
<glyph unicode="&#xb9;" horiz-adv-x="233" d="M34 432v37h68v263l-58 -15v38l100 26v-312h66v-37h-176z" />
<glyph unicode="&#xba;" horiz-adv-x="488" d="M244 372q-70 0 -117.5 45t-47.5 122q0 78 47 122.5t117 44.5q71 0 118 -44.5t47 -121.5q0 -78 -47 -123t-117 -45zM244 414q53 0 86.5 34t33.5 91q0 58 -33.5 92t-87.5 34q-53 0 -86 -33.5t-33 -91.5t33 -92t87 -34zM85 265v42h319v-42h-319z" />
<glyph unicode="&#xbb;" horiz-adv-x="393" d="M241 297l-138 -220h-50l134 220l-134 220h50zM204 517l138 -220l-138 -220h-51l135 220l-135 220h51z" />
<glyph unicode="&#xbc;" horiz-adv-x="709" d="M182 -2h-47l371 705h48zM48 353v37h64v265l-56 -13v38l98 23v-313h66v-37h-172zM575 356h57v-233h42v-39h-42v-84h-41v84h-191l-3 32zM448 123h143v193z" />
<glyph unicode="&#xbd;" horiz-adv-x="773" d="M48 353v37h63v265l-55 -12v37l98 23v-313h66v-37h-172zM181 -3l-47 1l372 705h48zM500 252h-40q0 57 37.5 82t94.5 25q54 0 93 -25t39 -80q0 -54 -36 -75.5t-94 -27.5q-21 -2 -35 -5.5t-29.5 -11t-23.5 -22t-8 -36.5v-37h186l1 54h40v-93h-269v77q0 31 11.5 52.5 t32.5 32.5t40.5 16t45.5 8q30 3 49 8t33.5 20t14.5 40q0 66 -91 66t-92 -68z" />
<glyph unicode="&#xbe;" horiz-adv-x="764" d="M232 -4h-47l400 709h48zM93 668l-2 -51h-35v87h251v-20l-94 -123q48 -4 77 -30t29 -75q0 -58 -40 -85t-99 -27q-58 0 -96.5 26.5t-38.5 81.5h40q1 -36 28.5 -52.5t66.5 -16.5q98 0 98 73q0 68 -96 73h-20l-2 16l93 123h-160zM622 358h57v-235h50v-39h-50v-84h-41v84h-191 l-3 32zM495 123h143v195z" />
<glyph unicode="&#xbf;" horiz-adv-x="585" d="M325 508q16 0 27 -9.5t11 -27.5t-11.5 -28t-27.5 -10t-27 10t-11 28t11.5 27.5t27.5 9.5zM502 -2h51q0 -55 -21 -96t-58 -64t-80.5 -33.5t-92.5 -10.5q-110 0 -187.5 49.5t-78.5 154.5q0 45 13 79t36.5 54.5t46.5 32.5t54 21q75 23 97 57t20 124h49q3 -105 -28.5 -151 t-120.5 -73q-60 -17 -88 -48t-28 -96q0 -44 19.5 -76.5t52.5 -49t68 -24t75 -7.5q30 0 56.5 4t53.5 15t46.5 28t32 45.5t12.5 64.5z" />
<glyph unicode="&#xc0;" d="M380 749l-90 123h59l76 -119v-4h-45zM230 259h344q-28 64 -84 194t-86 199q-28 -63 -86 -194t-88 -199zM137 47h92v-47h-223v47h74l274 607h-95v46h174l291 -653h74v-47h-223v47h93q-13 30 -37.5 85.5t-35.5 80.5h-385q-23 -54 -73 -166z" />
<glyph unicode="&#xc1;" d="M417 748h-45v4l75 120h60zM230 259h344q-28 64 -84 194t-86 199q-28 -63 -86 -194t-88 -199zM137 47h92v-47h-223v47h74l274 607h-95v46h174l291 -653h74v-47h-223v47h93q-13 30 -37.5 85.5t-35.5 80.5h-385q-23 -54 -73 -166z" />
<glyph unicode="&#xc2;" d="M377 862h40l126 -117v-5h-51l-95 87l-94 -87h-52v4zM230 259h344q-28 64 -84 194t-86 199q-28 -63 -86 -194t-88 -199zM798 47v-47h-223v47h93q-13 30 -37.5 85.5t-35.5 80.5h-385q-23 -54 -73 -166h92v-47h-223v47h74l274 607h-95v46h174l291 -653h74z" />
<glyph unicode="&#xc3;" d="M295 765l-32 14q11 41 39.5 55.5t69.5 -4.5q2 -1 24 -13t23 -12q50 -24 65 27l32 -13q-11 -43 -40.5 -57t-67.5 5q-2 1 -23.5 12t-23.5 12q-49 25 -66 -26zM230 259h344q-28 64 -84 194t-86 199q-28 -63 -86 -194t-88 -199zM798 47v-47h-223v47h93q-13 30 -37.5 85.5 t-35.5 80.5h-385q-23 -54 -73 -166h92v-47h-223v47h74l274 607h-95v46h174l291 -653h74z" />
<glyph unicode="&#xc4;" d="M254 789q0 18 11.5 28t26.5 10q16 0 27 -9.5t11 -27.5t-11.5 -28t-26.5 -10t-26.5 10t-11.5 27zM468 789q0 18 11.5 28t26.5 10t26.5 -10t11.5 -28t-11 -27.5t-27 -9.5t-27 9.5t-11 27.5zM230 259h344q-28 64 -84 194t-86 199q-28 -63 -86 -194t-88 -199zM137 47h92v-47 h-223v47h74l274 607h-95v46h174l291 -653h74v-47h-223v47h93q-13 30 -37.5 85.5t-35.5 80.5h-385q-23 -54 -73 -166z" />
<glyph unicode="&#xc5;" d="M405 821q-28 0 -46.5 -16t-18.5 -45q0 -28 18.5 -44.5t46.5 -16.5q29 0 47 16.5t18 44.5t-18.5 44.5t-46.5 16.5zM230 259h344q-22 49 -84.5 196.5t-85.5 200.5zM361 672q-28 12 -43 37t-15 51q0 46 30 71t72 25q41 0 72 -25t31 -70q0 -68 -63 -90l279 -624h74v-47h-224 v47h93q-11 26 -35.5 82t-36.5 84h-385l-73 -166h92v-47h-223v47h74z" />
<glyph unicode="&#xc6;" horiz-adv-x="976" d="M290 295l223 -1l1 357zM363 653v47h545v-156h-47l-1 110h-299v-276h296v-47h-296v-283h314l1 109h47v-157h-499v47h89v205h-248l-125 -205h104v-47h-241v47h79l380 606h-99z" />
<glyph unicode="&#xc7;" horiz-adv-x="709" d="M634 130l36 -33q-101 -102 -257 -104l-14 -56q57 3 82.5 -29t15.5 -73q-9 -34 -39.5 -52t-66.5 -18q-30 0 -57.5 13t-42.5 36l25 27q27 -38 75 -36q22 -1 41 9t25 29q9 31 -17 51t-79 9l-7 6l22 86q-152 12 -235.5 111t-83.5 241q0 71 22.5 135t66 115.5t113.5 81.5 t157 30q133 0 230 -84q0 -46 -2 -142h-45l-1 120q-78 58 -182 58q-147 0 -228 -90.5t-80 -223.5q0 -133 83.5 -219t224.5 -86q128 0 218 88z" />
<glyph unicode="&#xc8;" horiz-adv-x="683" d="M398 757h-45l-90 123h60l75 -119v-4zM195 48h387l1 109h47v-157h-580v47h95v607h-93v46h563v-156h-47l-1 109h-372v-275h365v-47h-365v-283z" />
<glyph unicode="&#xc9;" horiz-adv-x="683" d="M389 756h-45v4l75 120h60zM195 48h387l1 109h47v-157h-580v47h95v607h-93v46h563v-156h-47l-1 109h-372v-275h365v-47h-365v-283z" />
<glyph unicode="&#xca;" horiz-adv-x="683" d="M218 752v4l129 122h40l130 -122v-4h-53l-97 90l-96 -90h-53zM195 48h387l1 109h47v-157h-580v47h95v607h-93v46h563v-156h-47l-1 109h-372v-275h365v-47h-365v-283z" />
<glyph unicode="&#xcb;" horiz-adv-x="683" d="M263 765q-15 0 -26.5 10t-11.5 27q0 18 11.5 28t26.5 10t26 -9.5t11 -27.5t-11 -28t-26 -10zM477 765q-16 0 -27 9.5t-11 27.5t11.5 28t26.5 10t26 -10t11 -28t-11 -27.5t-26 -9.5zM195 48h387l1 109h47v-157h-580v47h95v607h-93v46h563v-156h-47l-1 109h-372v-275h365 v-47h-365v-283z" />
<glyph unicode="&#xcc;" horiz-adv-x="340" d="M202 750h-45l-90 123h59l76 -119v-4zM195 47h96v-47h-241v47h94v606h-93v47h237v-47h-93v-606z" />
<glyph unicode="&#xcd;" horiz-adv-x="340" d="M188 751h-45v3l76 120h59zM195 47h96v-47h-241v47h94v606h-93v47h237v-47h-93v-606z" />
<glyph unicode="&#xce;" horiz-adv-x="340" d="M28 748v4l122 126h39l124 -126v-4h-50l-93 93l-93 -93h-49zM195 47h96v-47h-241v47h94v606h-93v47h237v-47h-93v-606z" />
<glyph unicode="&#xcf;" horiz-adv-x="340" d="M80 753q-16 0 -27 9.5t-11 27.5t11.5 28t26.5 10t26.5 -10t11.5 -28t-11 -27.5t-27 -9.5zM263 753q-16 0 -27 9.5t-11 27.5t11.5 28t26.5 10t26.5 -10t11.5 -28t-11 -27.5t-27 -9.5zM195 47h96v-47h-241v47h94v606h-93v47h237v-47h-93v-606z" />
<glyph unicode="&#xd0;" horiz-adv-x="789" d="M61 331v44h84v279h-91v46h323q169 0 261 -98.5t94 -243.5q1 -71 -20.5 -134.5t-64 -114t-112 -80t-158.5 -29.5h-326v47h94v284h-84zM196 47h181q100 0 171 45.5t103 114.5t30 151q-2 123 -81 209t-223 86h-181v-278h142v-44h-142v-284z" />
<glyph unicode="&#xd1;" horiz-adv-x="826" d="M276 793q11 41 42.5 55.5t73.5 -4.5q2 0 24.5 -12t24.5 -12q50 -26 67 27l34 -13q-11 -44 -42 -59t-71 5q-2 1 -24.5 13t-23.5 12q-55 26 -71 -27zM287 0h-236v46h93v607h-92v47h125l463 -605v558h-91v47h233v-47h-92v-653h-37l-458 596v-550h92v-46z" />
<glyph unicode="&#xd2;" horiz-adv-x="816" d="M444 771h-45l-90 123h59l76 -120v-3zM408 710q86 0 154.5 -30t111 -81t65 -115t22.5 -135q-1 -95 -39 -175t-119.5 -132.5t-194.5 -52.5q-85 0 -153.5 30.5t-111.5 81.5t-65.5 115t-22.5 135q0 69 22.5 132.5t65 114.5t111 81.5t154.5 30.5zM711 349q0 131 -79.5 222 t-223.5 92q-73 0 -132 -26t-95.5 -70.5t-55.5 -100t-19 -116.5q0 -127 80 -220t222 -93q96 0 166.5 45.5t103.5 115t33 151.5z" />
<glyph unicode="&#xd3;" horiz-adv-x="816" d="M429 769h-45v4l75 120h60zM408 710q86 0 154.5 -30t111 -81t65 -115t22.5 -135q-1 -95 -39 -175t-119.5 -132.5t-194.5 -52.5q-85 0 -153.5 30.5t-111.5 81.5t-65.5 115t-22.5 135q0 69 22.5 132.5t65 114.5t111 81.5t154.5 30.5zM711 349q0 131 -79.5 222t-223.5 92 q-73 0 -132 -26t-95.5 -70.5t-55.5 -100t-19 -116.5q0 -127 80 -220t222 -93q96 0 166.5 45.5t103.5 115t33 151.5z" />
<glyph unicode="&#xd4;" horiz-adv-x="816" d="M431 904l141 -132v-5h-52l-109 101l-109 -101h-51v5l141 132h39zM408 710q86 0 154.5 -30t111 -81t65 -115t22.5 -135q-1 -95 -39 -175t-119.5 -132.5t-194.5 -52.5q-85 0 -153.5 30.5t-111.5 81.5t-65.5 115t-22.5 135q0 69 22.5 132.5t65 114.5t111 81.5t154.5 30.5z M711 349q0 131 -79.5 222t-223.5 92q-73 0 -132 -26t-95.5 -70.5t-55.5 -100t-19 -116.5q0 -127 80 -220t222 -93q96 0 166.5 45.5t103.5 115t33 151.5z" />
<glyph unicode="&#xd5;" horiz-adv-x="816" d="M396 858q2 -1 24.5 -12.5t23.5 -11.5q51 -24 67 29l33 -14q-10 -44 -41 -58.5t-70 5.5q-2 0 -24 12t-24 12q-51 26 -68 -26l-33 13q11 42 41 56t71 -5zM408 710q86 0 154.5 -30t111 -81t65 -115t22.5 -135q-1 -95 -39 -175t-119.5 -132.5t-194.5 -52.5q-85 0 -153.5 30.5 t-111.5 81.5t-65.5 115t-22.5 135q0 69 22.5 132.5t65 114.5t111 81.5t154.5 30.5zM711 349q0 131 -79.5 222t-223.5 92q-73 0 -132 -26t-95.5 -70.5t-55.5 -100t-19 -116.5q0 -127 80 -220t222 -93q96 0 166.5 45.5t103.5 115t33 151.5z" />
<glyph unicode="&#xd6;" horiz-adv-x="816" d="M340 813q0 -23 -18 -32t-36.5 0t-18.5 32t18.5 32t36.5 0t18 -32zM554 813q0 -23 -18 -32t-36.5 0t-18.5 32t18.5 32t36.5 0t18 -32zM408 710q86 0 154.5 -30t111 -81t65 -115t22.5 -135q-1 -95 -39 -175t-119.5 -132.5t-194.5 -52.5q-85 0 -153.5 30.5t-111.5 81.5 t-65.5 115t-22.5 135q0 69 22.5 132.5t65 114.5t111 81.5t154.5 30.5zM711 349q0 131 -79.5 222t-223.5 92q-73 0 -132 -26t-95.5 -70.5t-55.5 -100t-19 -116.5q0 -127 80 -220t222 -93q96 0 166.5 45.5t103.5 115t33 151.5z" />
<glyph unicode="&#xd7;" horiz-adv-x="454" d="M73 447l30 31l124 -124l123 123l31 -31l-124 -123l128 -125l-31 -31l-127 126l-126 -128l-31 31l127 128z" />
<glyph unicode="&#xd8;" horiz-adv-x="815" d="M105 350q0 -80 34.5 -151.5t98.5 -113.5l322 540q-67 38 -153 38q-144 0 -223.5 -92.5t-78.5 -220.5zM710 349q0 76 -28.5 142t-82.5 109l-321 -537q60 -26 130 -26q142 0 222.5 92.5t79.5 219.5zM407 710q99 0 179 -43l55 93h53l-70 -117q66 -49 101 -127t35 -167 q-1 -95 -38.5 -175t-119.5 -132.5t-195 -52.5q-87 0 -155 31l-59 -99h-52l71 120q-76 48 -116.5 131t-40.5 179q0 68 21.5 130.5t63 114.5t110.5 83t157 31z" />
<glyph unicode="&#xd9;" horiz-adv-x="785" d="M428 753h-45l-90 124h59l76 -120v-4zM393 38q92 0 154.5 59.5t62.5 167.5v388h-93v47h233v-47h-91v-389q0 -124 -74.5 -198.5t-191.5 -74.5q-116 0 -191.5 74.5t-75.5 198.5v389h-91v47h233v-47h-93v-389q0 -107 63 -166.5t155 -59.5z" />
<glyph unicode="&#xda;" horiz-adv-x="785" d="M404 753h-46v3l77 119h61zM393 38q92 0 154.5 59.5t62.5 167.5v388h-93v47h233v-47h-91v-389q0 -124 -74.5 -198.5t-191.5 -74.5q-116 0 -191.5 74.5t-75.5 198.5v389h-91v47h233v-47h-93v-389q0 -107 63 -166.5t155 -59.5z" />
<glyph unicode="&#xdb;" horiz-adv-x="785" d="M239 760v3l129 122h40l129 -121v-4h-52l-97 89l-97 -89h-52zM393 38q92 0 154.5 59.5t62.5 167.5v388h-93v47h233v-47h-91v-389q0 -124 -74.5 -198.5t-191.5 -74.5q-116 0 -191.5 74.5t-75.5 198.5v389h-91v47h233v-47h-93v-389q0 -107 63 -166.5t155 -59.5z" />
<glyph unicode="&#xdc;" horiz-adv-x="785" d="M262 767q-16 0 -27 9.5t-11 27.5t11.5 28t26.5 10q16 0 27 -10t11 -28t-11 -27.5t-27 -9.5zM525 767q-16 0 -27 9.5t-11 27.5t11.5 28t26.5 10q16 0 27 -10t11 -28t-11 -27.5t-27 -9.5zM393 38q92 0 154.5 59.5t62.5 167.5v388h-93v47h233v-47h-91v-389 q0 -124 -74.5 -198.5t-191.5 -74.5q-116 0 -191.5 74.5t-75.5 198.5v389h-91v47h233v-47h-93v-389q0 -107 63 -166.5t155 -59.5z" />
<glyph unicode="&#xdd;" horiz-adv-x="720" d="M326 757v4l76 120h59l-90 -124h-45zM240 653h-88l96 -149l112 -176l115 178l95 147h-89v47h224v-47h-76l-244 -373v-233h96v-47h-242v47h96v233l-243 373h-77v47h225v-47z" />
<glyph unicode="&#xde;" horiz-adv-x="708" d="M145 655h-94v46h239v-46h-95v-100h250q107 0 165.5 -57t58.5 -143q-1 -86 -59 -143t-165 -57h-250v-108h95v-47h-239v47h94v608zM445 201q83 0 128.5 43.5t45.5 110.5t-45.5 111t-128.5 44h-250v-309h250z" />
<glyph unicode="&#xdf;" horiz-adv-x="634" d="M111 517q0 95 59 144.5t149 49.5q96 0 154 -43.5t58 -135.5q0 -49 -24.5 -86.5t-67.5 -54.5q-17 -7 -42 -9q27 0 41 -4q147 -41 147 -192q0 -101 -62 -150t-156 -48q-73 0 -141 29l4 46q64 -32 133 -32q77 1 125.5 39t48.5 114q0 174 -221 174h-86v44h82q30 0 57 5.5 t54.5 18.5t44 40t16.5 65q0 137 -165 137q-84 0 -121 -40t-41 -112l1 -516h-139v43h92v474z" />
<glyph unicode="&#xe0;" horiz-adv-x="674" d="M298 574l-85 120h58l71 -116v-4h-44zM302 36q95 0 149 61.5t55 146.5q1 87 -53.5 149t-152.5 62q-87 0 -145.5 -57t-58.5 -152q0 -96 59 -153t147 -57zM551 44h91v-44h-135q0 13 -1.5 52.5t-1.5 53.5q-28 -57 -84.5 -86t-119.5 -29q-107 0 -179 70t-72 186 q0 115 72 184.5t179 69.5q65 0 122.5 -30.5t82.5 -86.5v110h136v-45h-90v-405z" />
<glyph unicode="&#xe1;" horiz-adv-x="674" d="M318 573h-44v4l71 116h58zM300 455q-87 0 -145.5 -57t-58.5 -152q0 -96 59 -153t147 -57q95 0 149 61.5t55 146.5q1 87 -53.5 149t-152.5 62zM551 44h91v-44h-135q0 13 -1.5 52.5t-1.5 53.5q-28 -57 -84.5 -86t-119.5 -29q-107 0 -179 70t-72 186q0 115 72 184.5 t179 69.5q65 0 122.5 -30.5t82.5 -86.5v110h136v-45h-90v-405z" />
<glyph unicode="&#xe2;" horiz-adv-x="674" d="M177 570v4l126 122h40l127 -122v-4h-51l-96 90l-95 -90h-51zM300 455q-87 0 -145.5 -57t-58.5 -152q0 -96 59 -153t147 -57q95 0 149 61.5t55 146.5q1 87 -53.5 149t-152.5 62zM551 44h91v-44h-135q0 13 -1.5 52.5t-1.5 53.5q-28 -57 -84.5 -86t-119.5 -29 q-107 0 -179 70t-72 186q0 115 72 184.5t179 69.5q65 0 122.5 -30.5t82.5 -86.5v110h136v-45h-90v-405z" />
<glyph unicode="&#xe3;" horiz-adv-x="674" d="M230 607l-33 14q11 41 40 55t70 -5q2 -1 24 -12.5t23 -11.5q50 -23 65 27l33 -13q-10 -43 -40.5 -57t-68.5 5q-2 1 -24 12.5t-23 11.5q-51 24 -66 -26zM302 36q95 0 149 61.5t55 146.5q1 87 -53.5 149t-152.5 62q-87 0 -145.5 -57t-58.5 -152q0 -96 59 -153t147 -57z M551 44h91v-44h-135q0 13 -1.5 52.5t-1.5 53.5q-28 -57 -84.5 -86t-119.5 -29q-107 0 -179 70t-72 186q0 115 72 184.5t179 69.5q65 0 122.5 -30.5t82.5 -86.5v110h136v-45h-90v-405z" />
<glyph unicode="&#xe4;" horiz-adv-x="674" d="M219 609q-16 0 -27 9.5t-11 27.5t11.5 28t26.5 10q16 0 27 -10t11 -28t-11 -27.5t-27 -9.5zM433 609q-16 0 -27 9.5t-11 27.5t11.5 28t26.5 10q16 0 27 -10t11 -28t-11 -27.5t-27 -9.5zM302 36q95 0 149 61.5t55 146.5q1 87 -53.5 149t-152.5 62q-87 0 -145.5 -57 t-58.5 -152q0 -96 59 -153t147 -57zM551 44h91v-44h-135q0 13 -1.5 52.5t-1.5 53.5q-28 -57 -84.5 -86t-119.5 -29q-107 0 -179 70t-72 186q0 115 72 184.5t179 69.5q65 0 122.5 -30.5t82.5 -86.5v110h136v-45h-90v-405z" />
<glyph unicode="&#xe5;" horiz-adv-x="674" d="M324 551q-40 0 -68.5 23.5t-28.5 61.5q0 42 28.5 65t67.5 23q40 0 70 -23t30 -64q0 -40 -29.5 -63t-69.5 -23zM324 693q-27 0 -45 -15t-18 -41q0 -24 18.5 -39t44.5 -15q28 0 46 15t18 40t-18 40t-46 15zM302 36q95 0 149 61.5t55 146.5q1 87 -53.5 149t-152.5 62 q-87 0 -145.5 -57t-58.5 -152q0 -96 59 -153t147 -57zM551 44h91v-44h-135q0 13 -1.5 52.5t-1.5 53.5q-28 -57 -84.5 -86t-119.5 -29q-107 0 -179 70t-72 186q0 115 72 184.5t179 69.5q65 0 122.5 -30.5t82.5 -86.5v110h136v-45h-90v-405z" />
<glyph unicode="&#xe6;" horiz-adv-x="1038" d="M548 267l402 -1q1 91 -53.5 141t-148.5 50q-82 0 -137 -50.5t-63 -139.5zM300 455q-87 0 -145.5 -57.5t-58.5 -152.5t59.5 -152t147.5 -57q98 0 151 60t53 149q-2 91 -56 150.5t-151 59.5zM545 0h-39v117q-26 -62 -83.5 -94t-122.5 -31q-107 0 -179 69.5t-72 185.5 q0 114 72 184t178 69q68 0 127.5 -34.5t80.5 -95.5v124h39v-111q30 56 83.5 87t120.5 31q112 0 185.5 -71t58.5 -204h-446q7 -89 64 -138t138 -49q51 0 102 21t78 56l33 -28q-35 -45 -93.5 -69.5t-120.5 -24.5q-67 0 -121 30t-83 86v-110z" />
<glyph unicode="&#xe7;" horiz-adv-x="529" d="M460 100l31 -32q-72 -72 -177 -74h-10l-10 -46q56 3 81 -27.5t13 -70.5q-19 -66 -101 -64q-64 2 -97 47l23 26q26 -34 74 -37q51 0 62 36q8 29 -16.5 48.5t-75.5 8.5l-6 5l18 77q-100 12 -159.5 76.5t-59.5 172.5q0 118 72.5 186t185.5 68q91 0 164 -52l-1 -110h-43v87 q-49 31 -120 31q-90 -1 -150.5 -56t-60.5 -154q0 -97 59 -152t154 -55q90 0 150 61z" />
<glyph unicode="&#xe8;" horiz-adv-x="588" d="M300 579l-90 124h60l75 -120v-4h-45zM480 116l34 -28q-35 -45 -93.5 -69.5t-120.5 -24.5q-107 0 -179 69t-72 184q0 112 71 183.5t178 71.5q114 0 186.5 -70t59.5 -206h-447q7 -89 65 -138t139 -49q51 0 101.5 21t77.5 56zM97 268h403q1 91 -53 140.5t-148 49.5 q-82 0 -138 -50.5t-64 -139.5z" />
<glyph unicode="&#xe9;" horiz-adv-x="588" d="M269 583l76 120h59l-90 -123h-45v3zM298 502q114 0 186.5 -70t59.5 -206h-447q7 -89 65 -138t139 -49q51 0 101.5 21t77.5 56l34 -28q-35 -45 -93.5 -69.5t-120.5 -24.5q-107 0 -179 69t-72 184q0 112 71 183.5t178 71.5zM500 268q1 91 -53 140.5t-148 49.5 q-82 0 -138 -50.5t-64 -139.5h403z" />
<glyph unicode="&#xea;" horiz-adv-x="588" d="M152 573l136 128h38l135 -128v-4h-50l-104 96l-104 -96h-51v4zM480 116l34 -28q-35 -45 -93.5 -69.5t-120.5 -24.5q-107 0 -179 69t-72 184q0 112 71 183.5t178 71.5q114 0 186.5 -70t59.5 -206h-447q7 -89 65 -138t139 -49q51 0 101.5 21t77.5 56zM97 268h403 q1 91 -53 140.5t-148 49.5q-82 0 -138 -50.5t-64 -139.5z" />
<glyph unicode="&#xeb;" horiz-adv-x="588" d="M172 656q0 22 18 31t36 0t18 -31t-18 -31t-36 0t-18 31zM446 656q0 -22 -18 -31t-36 0t-18 31t18 31t36 0t18 -31zM480 116l34 -28q-35 -45 -93.5 -69.5t-120.5 -24.5q-107 0 -179 69t-72 184q0 112 71 183.5t178 71.5q114 0 186.5 -70t59.5 -206h-447q7 -89 65 -138 t139 -49q51 0 101.5 21t77.5 56zM97 268h403q1 91 -53 140.5t-148 49.5q-82 0 -138 -50.5t-64 -139.5z" />
<glyph unicode="&#xec;" horiz-adv-x="285" d="M130 569l-80 124h56l67 -120v-4h-43zM35 495h137v-450h94v-45h-234v45h94v406h-91v44z" />
<glyph unicode="&#xed;" horiz-adv-x="285" d="M119 572l67 120h56l-80 -124h-43v4zM34 495h138v-450h94v-45h-234v45h93v406h-91v44z" />
<glyph unicode="&#xee;" horiz-adv-x="285" d="M19 566v5l102 123h34l103 -123v-5h-44l-76 86l-76 -86h-43zM34 451v44h138v-450h94v-45h-234v45h93v406h-91z" />
<glyph unicode="&#xef;" horiz-adv-x="285" d="M223 608q-16 0 -27 9.5t-11 27.5t11.5 28t26.5 10q16 0 27 -10t11 -28t-11 -27.5t-27 -9.5zM68 608q-16 0 -27 9.5t-11 27.5t11.5 28t26.5 10q16 0 27 -10t11 -28t-11 -27.5t-27 -9.5zM34 495h138v-450h94v-45h-234v45h93v406h-91v44z" />
<glyph unicode="&#xf0;" horiz-adv-x="612" d="M331 649l44 64l30 -19l-43 -64q191 -133 196 -376q2 -117 -68 -190t-187 -73q-120 0 -187 73.5t-67 174.5t64.5 174.5t181.5 76.5q62 2 117.5 -26t86.5 -78q-20 64 -64 118t-99 91l-40 -58l-29 19l39 58q-46 27 -101 45l14 40q64 -22 112 -50zM303 35q97 0 152.5 61 t55.5 144q0 84 -55.5 146t-152.5 62t-151.5 -61.5t-54.5 -146.5t54 -145t152 -60z" />
<glyph unicode="&#xf1;" horiz-adv-x="671" d="M331 689q2 -1 23.5 -13t23.5 -12q49 -24 64 27l33 -13q-11 -43 -41 -57t-68 5q-2 1 -23.5 12.5t-22.5 11.5q-51 24 -66 -26l-33 14q11 41 40 55.5t70 -4.5zM170 275v-231h86v-44h-223v44h90v406h-90v44h135l2 -102q30 56 79 83t106 28q103 0 158.5 -57.5t55.5 -161.5 v-240h91v-44h-221v44h82v239q0 86 -43 130.5t-125 44.5q-78 -1 -130.5 -53t-52.5 -130z" />
<glyph unicode="&#xf2;" horiz-adv-x="605" d="M314 580l-53 43l-23 80l50 -42l51 -79zM50 246q0 116 73 186.5t180 70.5t179.5 -71t72.5 -186t-72.5 -184t-180.5 -69q-107 0 -179.5 69t-72.5 184zM508 246q0 96 -59.5 154.5t-146.5 58.5q-86 0 -145.5 -58.5t-59.5 -154.5q0 -94 59 -151t146 -57t146.5 57t59.5 151z " />
<glyph unicode="&#xf3;" horiz-adv-x="605" d="M312 579h-45v3l75 119h60zM50 246q0 116 73 186.5t180 70.5t179.5 -71t72.5 -186t-72.5 -184t-180.5 -69q-107 0 -179.5 69t-72.5 184zM508 246q0 96 -59.5 154.5t-146.5 58.5q-86 0 -145.5 -58.5t-59.5 -154.5q0 -94 59 -151t146 -57t146.5 57t59.5 151z" />
<glyph unicode="&#xf4;" horiz-adv-x="605" d="M322 701l131 -128v-5h-49l-101 98l-99 -98h-50v5l131 128h37zM50 246q0 116 73 186.5t180 70.5t179.5 -71t72.5 -186t-72.5 -184t-180.5 -69q-107 0 -179.5 69t-72.5 184zM508 246q0 96 -59.5 154.5t-146.5 58.5q-86 0 -145.5 -58.5t-59.5 -154.5q0 -94 59 -151t146 -57 t146.5 57t59.5 151z" />
<glyph unicode="&#xf5;" horiz-adv-x="605" d="M288 686q2 0 24 -12t24 -12q48 -23 65 27l32 -13q-10 -43 -40 -57t-68 5q-2 0 -23.5 12t-23.5 12q-50 26 -67 -26l-32 14q11 40 39.5 54t69.5 -4zM50 246q0 116 73 186.5t180 70.5t179.5 -71t72.5 -186t-72.5 -184t-180.5 -69q-107 0 -179.5 69t-72.5 184zM508 246 q0 96 -59.5 154.5t-146.5 58.5q-86 0 -145.5 -58.5t-59.5 -154.5q0 -94 59 -151t146 -57t146.5 57t59.5 151z" />
<glyph unicode="&#xf6;" horiz-adv-x="605" d="M244 663q0 -21 -17 -30t-34.5 0t-17.5 30q0 16 11 25.5t23.5 9.5t23.5 -9.5t11 -25.5zM436 663q0 -21 -17 -30t-34.5 0t-17.5 30t17.5 30t34.5 0t17 -30zM50 246q0 116 73 186.5t180 70.5t179.5 -71t72.5 -186t-72.5 -184t-180.5 -69q-107 0 -179.5 69t-72.5 184z M508 246q0 96 -59.5 154.5t-146.5 58.5q-86 0 -145.5 -58.5t-59.5 -154.5q0 -94 59 -151t146 -57t146.5 57t59.5 151z" />
<glyph unicode="&#xf7;" horiz-adv-x="545" d="M310 484q0 -24 -19 -33.5t-38 0t-19 33.5q0 23 19 32.5t38 0t19 -32.5zM78 311v48h389v-48h-389zM310 180q0 -24 -19 -33.5t-38 0t-19 33.5q0 23 19 32.5t38 0t19 -32.5z" />
<glyph unicode="&#xf8;" horiz-adv-x="603" d="M179 77l215 360q-44 21 -92 21q-86 0 -145 -58.5t-59 -153.5q0 -113 81 -169zM431 414l-213 -357q35 -17 84 -17q87 0 146 56t59 150q0 107 -76 168zM101 -54l54 90q-104 69 -104 210q0 115 72 186t179 71q62 0 116 -26l37 62h50l-50 -85q98 -73 98 -208 q0 -115 -72.5 -184t-179.5 -69q-62 0 -109 22l-42 -69h-49z" />
<glyph unicode="&#xf9;" horiz-adv-x="648" d="M336 567h-45l-90 123h59l76 -120v-3zM538 494v-451h91v-43h-132l-4 100q-59 -106 -187 -108q-102 0 -156.5 56.5t-54.5 160.5v241h-87v44h135v-283q0 -174 168 -174q79 0 129 52t50 130v231h-88v44h136z" />
<glyph unicode="&#xfa;" horiz-adv-x="648" d="M306 565h-45v4l76 120h59zM538 494v-451h91v-43h-132l-4 100q-59 -106 -187 -108q-102 0 -156.5 56.5t-54.5 160.5v241h-87v44h135v-283q0 -174 168 -174q79 0 129 52t50 130v231h-88v44h136z" />
<glyph unicode="&#xfb;" horiz-adv-x="648" d="M158 569v3l129 122h40l130 -121v-4h-53l-97 89l-96 -89h-53zM538 494v-451h91v-43h-132l-4 100q-59 -106 -187 -108q-102 0 -156.5 56.5t-54.5 160.5v241h-87v44h135v-283q0 -174 168 -174q79 0 129 52t50 130v231h-88v44h136z" />
<glyph unicode="&#xfc;" horiz-adv-x="648" d="M202 606q-15 -1 -26.5 9t-11.5 28t11 27.5t27 9.5q15 0 26 -9.5t11 -27.5t-11 -27.5t-26 -9.5zM416 605q-15 0 -26.5 10t-11.5 28t11 27.5t27 9.5q15 0 26 -9.5t11 -27.5t-11 -28t-26 -10zM538 494v-451h91v-43h-132l-4 100q-59 -106 -187 -108q-102 0 -156.5 56.5 t-54.5 160.5v241h-87v44h135v-283q0 -174 168 -174q79 0 129 52t50 130v231h-88v44h136z" />
<glyph unicode="&#xfd;" horiz-adv-x="607" d="M318 571h-45v3l75 120h60zM464 450h-83v44h207v-44h-71l-251 -604q-28 -69 -85 -85t-125 29l22 40q40 -32 80 -26t62 55l62 146l-191 445h-76v44h207v-44h-79l108 -250l57 -146l55 147z" />
<glyph unicode="&#xfe;" horiz-adv-x="636" d="M336 37q88 0 145 54.5t57 155.5t-56.5 154.5t-145.5 53.5q-87 0 -144.5 -59t-57.5 -150t58 -150t144 -59zM0 656v43h131v-323q30 58 87 91.5t128 33.5q105 -4 172.5 -71t67.5 -183q0 -120 -70.5 -188t-179.5 -68q-66 0 -120 31.5t-85 92.5v-278h92v-43h-220v43h82v819 h-85z" />
<glyph unicode="&#xff;" horiz-adv-x="607" d="M207 606q-16 0 -27 9.5t-11 27.5t11.5 28t26.5 10q16 0 27 -10t11 -28t-11 -27.5t-27 -9.5zM421 606q-16 0 -27 9.5t-11 27.5t11.5 28t26.5 10q16 0 27 -10t11 -28t-11 -27.5t-27 -9.5zM464 450h-83v44h207v-44h-71l-251 -604q-28 -69 -85 -85t-125 29l22 40 q40 -32 80 -26t62 55l62 146l-191 445h-76v44h207v-44h-79l108 -250l57 -146l55 147z" />
<glyph unicode="&#x152;" horiz-adv-x="944" d="M478 44v614q-35 6 -69 6q-146 0 -224.5 -89t-77.5 -225q1 -135 79.5 -223t222.5 -88q32 0 69 5zM892 0h-414q-4 0 -17.5 -2t-27 -3t-24.5 -1q-169 0 -261 102t-92 254q0 154 91.5 255t261.5 101q37 0 70 -6h396v-155h-45l-1 110h-307v-273h298v-45h-298v-290h324l1 109 h45v-156z" />
<glyph unicode="&#x153;" horiz-adv-x="1037" d="M506 246q0 94 -58.5 153t-145.5 59q-85 0 -144.5 -60t-59.5 -152q0 -94 58.5 -151t145.5 -57t145.5 57t58.5 151zM549 268l401 -1q1 91 -53 141t-148 50q-82 0 -137.5 -50.5t-62.5 -139.5zM930 116l33 -28q-35 -46 -92.5 -70t-120.5 -24q-77 0 -137.5 39.5t-86.5 109.5 q-27 -72 -87 -111t-138 -39q-107 0 -179 69t-72 184q0 116 72.5 186.5t179.5 70.5q78 0 139 -41t86 -113q24 70 83.5 111.5t137.5 41.5q114 0 186.5 -70t59.5 -206h-76.5h-147h-143.5h-78q7 -89 64 -138t138 -49q51 0 101.5 21t77.5 56z" />
<glyph unicode="&#x178;" horiz-adv-x="720" d="M246 769q-15 0 -26.5 10t-11.5 27q0 18 11.5 28t26.5 10t26 -9.5t11 -27.5t-11 -28t-26 -10zM476 769q-16 0 -27 9.5t-11 27.5t11.5 28t26.5 10t26.5 -10t11.5 -28t-11 -27.5t-27 -9.5zM240 653h-88l96 -149l112 -176l115 178l95 147h-89v47h224v-47h-76l-244 -373v-233 h96v-47h-242v47h96v233l-243 373h-77v47h225v-47z" />
<glyph unicode="&#x2c6;" horiz-adv-x="421" d="M49 577v3l129 122h40l130 -121v-4h-53l-97 89l-96 -89h-53z" />
<glyph unicode="&#x2dc;" horiz-adv-x="324" d="M139 706q2 0 23.5 -12t23.5 -13q49 -24 64 27l33 -13q-11 -43 -41 -57t-68 5q-2 1 -23.5 12.5t-22.5 11.5q-51 24 -66 -26l-33 14q11 41 40 55.5t70 -4.5z" />
<glyph unicode="&#x2000;" horiz-adv-x="452" />
<glyph unicode="&#x2001;" horiz-adv-x="904" />
<glyph unicode="&#x2002;" horiz-adv-x="452" />
<glyph unicode="&#x2003;" horiz-adv-x="904" />
<glyph unicode="&#x2004;" horiz-adv-x="301" />
<glyph unicode="&#x2005;" horiz-adv-x="226" />
<glyph unicode="&#x2006;" horiz-adv-x="150" />
<glyph unicode="&#x2007;" horiz-adv-x="150" />
<glyph unicode="&#x2008;" horiz-adv-x="113" />
<glyph unicode="&#x2009;" horiz-adv-x="180" />
<glyph unicode="&#x200a;" horiz-adv-x="50" />
<glyph unicode="&#x2010;" horiz-adv-x="497" d="M74 265v46h349v-46h-349z" />
<glyph unicode="&#x2011;" horiz-adv-x="497" d="M74 265v46h349v-46h-349z" />
<glyph unicode="&#x2012;" horiz-adv-x="497" d="M74 265v46h349v-46h-349z" />
<glyph unicode="&#x2013;" horiz-adv-x="594" d="M74 264v46h446v-46h-446z" />
<glyph unicode="&#x2014;" horiz-adv-x="701" d="M74 264v46h553v-46h-553z" />
<glyph unicode="&#x2018;" horiz-adv-x="215" d="M119 701h42l-45 -162h-53z" />
<glyph unicode="&#x2019;" horiz-adv-x="212" d="M106 537h-42l45 164h52z" />
<glyph unicode="&#x201a;" horiz-adv-x="269" d="M119 -108h-40l45 168h53z" />
<glyph unicode="&#x201c;" horiz-adv-x="333" d="M118 700h41l-45 -163h-52zM237 700h41l-45 -163h-52z" />
<glyph unicode="&#x201d;" horiz-adv-x="332" d="M226 539h-41l44 162h53zM107 539h-42l45 162h53z" />
<glyph unicode="&#x201e;" horiz-adv-x="384" d="M234 -108h-39l45 168h52zM119 -108h-40l45 168h53z" />
<glyph unicode="&#x2022;" horiz-adv-x="377" d="M190 250q-43 0 -70.5 26t-27.5 69t27.5 69.5t70.5 26.5q41 0 68 -26.5t27 -69.5q0 -42 -27 -68.5t-68 -26.5z" />
<glyph unicode="&#x2026;" horiz-adv-x="625" d="M515 -4q-15 0 -25.5 9.5t-10.5 26.5t10.5 26.5t25.5 9.5t25.5 -9.5t10.5 -26.5t-10 -26.5t-26 -9.5zM313 -4q-15 0 -26 9.5t-11 26.5t11 26.5t26 9.5t25.5 -9.5t10.5 -26.5t-10 -26.5t-26 -9.5zM110 -4q-15 0 -25.5 9.5t-10.5 26.5t10.5 26.5t25.5 9.5t25.5 -9.5 t10.5 -26.5t-10 -26.5t-26 -9.5z" />
<glyph unicode="&#x202f;" horiz-adv-x="180" />
<glyph unicode="&#x2039;" horiz-adv-x="292" d="M188 79l-138 220l138 219h51l-135 -219l135 -220h-51z" />
<glyph unicode="&#x203a;" horiz-adv-x="292" d="M53 75l135 220l-135 219h51l138 -219l-138 -220h-51z" />
<glyph unicode="&#x205f;" horiz-adv-x="226" />
<glyph unicode="&#x20ac;" horiz-adv-x="618" d="M42 386v44h71q21 123 109.5 201t239.5 78q45 0 90 -12l-11 -45q-39 9 -79 9q-126 0 -200.5 -62.5t-95.5 -168.5h278l-11 -44h-276q-1 -13 -1 -39q0 -28 2 -40h265l-11 -43h-246q21 -103 95 -163.5t199 -60.5q50 0 104 19l13 -47q-59 -21 -118 -21q-149 0 -236 74 t-110 198h-70v43h64q-1 11 -1 39t1 41h-65z" />
<glyph unicode="&#x2122;" horiz-adv-x="787" d="M175 420v243h-113v37h269v-37h-115v-243h-41zM392 420v280h40l115 -150l119 150h36v-280h-43l1 209l-109 -136h-9l-108 140l1 -213h-43z" />
<glyph unicode="&#x25fc;" horiz-adv-x="495" d="M0 495h495v-495h-495v495z" />
<glyph unicode="&#xfb01;" horiz-adv-x="571" d="M434 619q-15 0 -26 9t-11 28q0 36 39 36q14 0 25.5 -9t11.5 -27q0 -19 -11.5 -28t-27.5 -9zM346 687l-13 -41q-25 14 -60 14q-49 0 -74 -27.5t-25 -92.5v-46h284v-450h94v-44h-221v44h81v406h-238v-406h98v-44h-232v44h87v406h-100v44h100v46q0 163 146 163q41 0 73 -16z " />
<glyph unicode="&#xfb02;" horiz-adv-x="570" d="M175 43h100v-43h-235v43h88v406h-101v43h101v48q0 165 168 167q67 1 161 -24v-639h93v-44h-221v44h82v603q-67 18 -117 18q-55 -1 -87 -28t-32 -97v-48h145v-43h-145v-406z" />
</font>
</defs>
</svg>
